/* XPM */
static char *_7c36b1a31304b18ac3c6bcd82687ec4TceIjuYmXe8T2d8O[] = {
/* columns rows colors chars-per-pixel */
"16 16 20 1 ",
"  c None",
". c #070707",
"X c #591D1D",
"o c #000854",
"O c #002D75",
"+ c #4C4C4C",
"@ c #96523A",
"# c #AE5A24",
"$ c #BC672E",
"% c #005AAD",
"& c #00ACE7",
"* c #00D2EB",
"= c #64E8FF",
"- c #9E9E96",
"; c #989898",
": c #F5B784",
"> c #B9F3FF",
", c #D2D2D2",
"< c #C5EFEF",
"1 c white",
/* pixels */
"                ",
"      ....      ",
"     .#::#.     ",
"    .-::::+.    ",
"    .1$::$;.    ",
"    .1X@@X;.    ",
"   ..1111,-..   ",
"  .-1o,,,-o,-.  ",
"  .11<O%%%O,,.  ",
"  .111<=***O,.  ",
"  .,<1<&&&&*,.  ",
"  .-%1>11>**-.  ",
"   .-O,&&%O-.   ",
"   .+,11,,,+.   ",
"    ........    ",
"                "
};
