/* XPM */
static char *_d5647c6ddc94e48d8292d06c744dffdIs1yTkaiGGXJEQl9[] = {
/* columns rows colors chars-per-pixel */
"16 16 59 1 ",
"  c gray2",
". c gray3",
"X c #000539",
"o c #343434",
"O c #642121",
"+ c #000748",
"@ c #001F50",
"# c #002965",
"$ c #424542",
"% c #484848",
"& c #4E4E4E",
"* c gray34",
"= c #5F645F",
"- c #626762",
"; c #646964",
": c #6A6F6A",
"> c #6E736E",
", c #7F7F75",
"< c gray50",
"1 c #943D19",
"2 c #812A24",
"3 c #A3511F",
"4 c #B35D28",
"5 c #C47434",
"6 c #A35C41",
"7 c #F2A05D",
"8 c #F4B073",
"9 c #003283",
"0 c #003D93",
"q c #0065B7",
"w c #0083C2",
"e c #0092DF",
"r c #00A4E4",
"t c #00B6EA",
"y c #00C4E5",
"u c #00CEE8",
"i c #00D7ED",
"p c #00E7F0",
"a c #56E6FF",
"s c #808080",
"d c #848484",
"f c #8B8B8B",
"g c gray56",
"h c #919488",
"j c #AEAF93",
"k c #A5A5A5",
"l c #AAAAA3",
"z c #B9BAA0",
"x c #F6C093",
"c c #CACBB1",
"v c #B3EAEA",
"b c #A3EFFF",
"n c gray77",
"m c #CCCECC",
"M c #D7D7D7",
"N c #E6E7DD",
"B c #CCF1F1",
"V c #C2F4FF",
"C c white",
/* pixels */
"df::ffffff::fff-",
"dz**>z... *gggg&",
"&>gg* 3881 >g>*d",
";***.,7778o **gd",
"&>gg.C5xx4k.>>>d",
"&>>g CO662k.gz*&",
";**  CCCCnc  &gd",
";>.lC+Mnn,Xn,.zd",
";* CCv@0qq9Mm gd",
"&g CCCBaypi#m >;",
"dg.NBCBrerrun *&",
";>.,wCVCCbyy, gd",
"&** h#mrtq9h *zd",
"dgg $nCCmMM$.**&",
"dgz>...     ggz;",
"<js%=sss=%%%=ss<"
};
