/* XPM */
static char *_3337700fa0747b0f49e5fe5e7823c41VeStUTWVlvt096iw[] = {
/* columns rows colors chars-per-pixel */
"16 16 24 1 ",
"  c None",
". c #1D1D1C",
"X c #1B2B3E",
"o c #682A19",
"O c #4E1740",
"+ c #7C2C52",
"@ c #1B4B4F",
"# c #00666A",
"$ c #327962",
"% c #AC2027",
"& c #A15735",
"* c #C44C26",
"= c #E84444",
"- c #CA4464",
"; c #F17878",
": c #6AC81F",
"> c #53A96F",
", c #72E27F",
"< c #CB804A",
"1 c #DD8944",
"2 c #F6A371",
"3 c #F2D17C",
"4 c #C1F567",
"5 c #A4FFA6",
/* pixels */
"                ",
"                ",
"    ....   ..   ",
"   .;;;-. .22.  ",
"  .;--;;-.<o<2. ",
" .;-+-###Xo4o<. ",
".;-+;#$>$X.:o&. ",
".;+;-#=,=. .o&. ",
" .;--#>,5.  .&. ",
" .;+-#>$$O..o&. ",
" .;O+-@@@+--o&. ",
" .,O+---+O..o&. ",
"  .O*131%.  .&. ",
"   .-+-++.  .&. ",
"   .-+-++.  .&. ",
"  .;+-O+O+. .&. "
};
