/* XPM */
static char *fb912c5bca24470a8dcf47232681a62e[] = {
/* columns rows colors chars-per-pixel */
"16 16 36 1 ",
"  c #1D1D1C",
". c #1B2B3E",
"X c #682A19",
"o c #4E1740",
"O c #7C2C52",
"+ c #1B4B4F",
"@ c #00666A",
"# c #327962",
"$ c #4E4E4E",
"% c gray34",
"& c #5F645F",
"* c #626762",
"= c #646964",
"- c #6A6F6A",
"; c #6E736E",
": c gray50",
"> c #AC2027",
", c #A15735",
"< c #C44C26",
"1 c #E84444",
"2 c #CA4464",
"3 c #F17878",
"4 c #6AC81F",
"5 c #53A96F",
"6 c #72E27F",
"7 c #CB804A",
"8 c #DD8944",
"9 c #F6A371",
"0 c #F2D17C",
"q c #C1F567",
"w c #808080",
"e c #848484",
"r c #8B8B8B",
"t c gray56",
"y c #B9BAA0",
"u c #A4FFA6",
/* pixels */
"er--rrrrrr--rrr*",
"ey%%;yyty;%tttt$",
"$;t  %;;    t;%e",
"=% 99 % 2333 %te",
"$ 97X7 233223 ;e",
"$ 7XqX.@@@2O23 $",
"= ,X4 .#5#@3O23 ",
"= ,X ; 161@23O3 ",
"= , %% u65@223 e",
"$ ,X  o##5@2O3 =",
"e ,X22O+++2Oo3 $",
"= ,X  oO222Oo6 e",
"$ , ;; >808<o ye",
"e , ;% OO2O2 %%$",
"e , tt OO2O2 ty=",
": , & OoOo2O3 w:"
};
