/* XPM */
static char *e8cc36f5497f450993f41d5ae4fe0f63QCmWTuwlZmdLLXU3[] = {
/* columns rows colors chars-per-pixel */
"16 16 36 1 ",
"  c #1D1D1C",
". c #1B2B3E",
"X c #682A19",
"o c #4E1740",
"O c #7C2C52",
"+ c #1B4B4F",
"@ c #00666A",
"# c #327962",
"$ c #4E4E4E",
"% c gray34",
"& c #5F645F",
"* c #626762",
"= c #646964",
"- c #6A6F6A",
"; c #6E736E",
": c gray50",
"> c #AC2027",
", c #A15735",
"< c #C44C26",
"1 c #E84444",
"2 c #CA4464",
"3 c #F17878",
"4 c #6AC81F",
"5 c #53A96F",
"6 c #72E27F",
"7 c #CB804A",
"8 c #DD8944",
"9 c #F6A371",
"0 c #F2D17C",
"q c #C1F567",
"w c #808080",
"e c #868686",
"r c #8B8B8B",
"t c gray56",
"y c #B9BAA0",
"u c #A4FFA6",
/* pixels */
"*rrr--rrrrrr--re",
"$tttt%;ytyy;%%ye",
"e%;t    ;;%  t;$",
"et% 3332 % 99 %=",
"e; 322332 7X79 $",
"$ 32O2@@@.XqX7 $",
" 32O3@#5#. 4X, =",
" 3O32@161 ; X, =",
"e 322@56u %% , =",
"= 3O2@5##o  X, $",
"$ 3oO2+++O22X, e",
"e 6oO222Oo  X, =",
"ey o<808> ;; , $",
"$%% 2O2OO %; , e",
"=yt 2O2OO tt , e",
":w 3O2oOoO & , :"
};
